%FSLAX44Y44*%
%MOMM*%
%SFA1B1*%

%IPPOS*%
%ADD10C,1.499997*%
%ADD11C,3.199994*%
%ADD12R,2.031996X2.031996*%
%ADD13R,2.158996X2.158996*%
%ADD14R,2.031996X2.031996*%
%ADD15C,0.253999*%
%LNpcb1-1*%
%LPD*%
%SRX1Y1I0J0*%
G36*
X158577Y533913D02*
X169983Y529189D01*
X175860Y514999*
X169983Y500809*
X155793Y494932*
X141603Y500809*
X136879Y512215*
X134917Y511825*
Y28174*
X136879Y27784*
X141603Y39189*
X155793Y45067*
X169983Y39189*
X175860Y24999*
X169983Y10809*
X158576Y6085*
X158966Y4123*
X422620*
X423010Y6085*
X411603Y10809*
X405725Y24999*
X411603Y39189*
X425793Y45067*
X439983Y39189*
X444708Y27782*
X446669Y28173*
Y65850*
X444708Y66240*
X441967Y59625*
X433839Y51497*
X426155Y48314*
X343535*
X337200Y41980*
Y36830*
X364433*
Y11430*
X212033*
Y36830*
X239266*
Y69215*
X236798*
Y94615*
Y120015*
Y145415*
Y147882*
X173933*
X166249Y151065*
X156089Y161225*
X152906Y168910*
Y171450*
X151073*
Y196850*
Y222250*
Y247650*
Y273050*
Y298450*
Y323850*
Y349250*
Y374650*
X152906*
Y383013*
X151636Y386080*
Y396240*
X149803*
Y421640*
X175203*
Y396240*
X173370*
Y387875*
X174640Y384810*
Y374650*
X178306*
Y428568*
X159835Y447040*
X149803*
Y472440*
X175203*
Y470606*
X216422*
X243783Y497968*
Y508000*
X245616*
Y509270*
X248799Y516953*
X255149Y523303*
X262833Y526486*
X377133*
X382567Y524235*
X384817Y523303*
X441967Y466153*
X444708Y459538*
X446669Y459928*
Y511826*
X444708Y512216*
X439983Y500809*
X425793Y494932*
X411603Y500809*
X405725Y514999*
X411603Y529189*
X423008Y533913*
X422618Y535875*
X158967*
X158577Y533913*
G37*
G36*
X345383Y482600D02*
X343550D01*
Y204724*
X340367Y197039*
X297490Y154161*
Y152161*
X330835Y118816*
X389198*
Y120015*
Y145415*
Y170815*
Y196215*
Y221615*
Y247015*
Y272415*
Y297815*
Y323215*
Y348615*
Y374015*
Y399415*
Y424815*
Y451485*
X415868*
Y424815*
Y399415*
Y374015*
Y348615*
Y323215*
Y297815*
Y272415*
Y247015*
Y221615*
Y196215*
Y173934*
X423416*
Y453968*
X372632Y504752*
X345383*
Y482600*
G37*
G36*
X442678Y157099D02*
X444708Y152198D01*
X446669Y152588*
Y161608*
X444708Y161998*
X442678Y157099*
G37*
G36*
X227273Y171450D02*
D01*
Y171030*
X228687Y169616*
X236798*
Y170815*
Y173282*
X227273*
Y171450*
G37*
G36*
X318150Y422910D02*
X314967Y415225D01*
X279407Y379665*
X271723Y376482*
X262833*
Y374650*
Y349250*
Y323850*
Y298450*
Y273050*
Y247650*
Y222885*
X263468*
Y196215*
Y170815*
Y169616*
X275533*
X280253Y167661*
X321816Y209224*
Y482600*
X318150*
Y422910*
G37*
G36*
X415868Y145415D02*
Y120015D01*
Y94615*
Y70048*
X421654*
X423416Y71810*
Y146628*
X422162Y147882*
X415868*
Y145415*
G37*
G36*
X134917Y21825D02*
Y4123D01*
X152620*
X153010Y6085*
X141603Y10809*
X136879Y22215*
X134917Y21825*
G37*
G36*
X439983Y10809D02*
X428576Y6085D01*
X428966Y4123*
X446669*
Y21826*
X444708Y22216*
X439983Y10809*
G37*
G36*
X311800Y65348D02*
Y36830D01*
X315466*
Y46482*
X318649Y54165*
X331349Y66865*
X339033Y70048*
X389198*
Y94615*
Y97082*
X343535*
X311800Y65348*
G37*
G36*
X261000Y36830D02*
X264666D01*
Y69215*
X263468*
X261000*
Y36830*
G37*
G36*
X263468Y143742D02*
Y120015D01*
Y118553*
X270517Y115633*
X283217Y102933*
X286400Y95250*
Y36830*
X290066*
Y69850*
X293249Y77533*
X317315Y101600*
X275844Y143070*
X265003Y145025*
X263468Y143742*
G37*
G36*
X228607Y452055D02*
X220923Y448872D01*
X191352*
X190587Y447024*
X196857Y440753*
X200040Y433070*
Y374650*
X227273*
Y372816*
X237433*
Y374650*
Y400050*
Y425450*
Y450850*
X262833*
Y430731*
X264681Y429965*
X271016Y436300*
Y482600*
X259152*
X228607Y452055*
G37*
G36*
X227273Y349250D02*
Y347416D01*
X237433*
Y349250*
Y351082*
X227273*
Y349250*
G37*
G36*
X292750Y431800D02*
D01*
X289567Y424115*
X270517Y405065*
X262833Y401882*
Y400050*
Y398216*
X267222*
X296416Y427410*
Y482600*
X292750*
Y431800*
G37*
G36*
X134917Y518174D02*
X136879Y517784D01*
X141603Y529189*
X153009Y533913*
X152618Y535875*
X134917*
Y518174*
G37*
G36*
X428577Y533913D02*
X439983Y529189D01*
X444708Y517782*
X446669Y518173*
Y535875*
X428968*
X428577Y533913*
G37*
G36*
X227273Y323850D02*
Y322016D01*
X237433*
Y323850*
Y325682*
X227273*
Y323850*
G37*
G36*
Y222250D02*
Y220416D01*
X236798*
Y222885*
X235600Y224082*
X227273*
Y222250*
G37*
G36*
Y196850D02*
Y195016D01*
X236798*
Y196215*
Y198682*
X227273*
Y196850*
G37*
G36*
Y247650D02*
Y245816D01*
X237433*
Y247650*
Y249482*
X227273*
Y247650*
G37*
G36*
Y298450D02*
Y296616D01*
X237433*
Y298450*
Y300282*
X227273*
Y298450*
G37*
G36*
Y273050D02*
Y271216D01*
X237433*
Y273050*
Y274882*
X227273*
Y273050*
G37*
G54D10*
X250133Y361950D02*
X214573D01*
X250133Y336550D02*
X214573D01*
X250133Y311150D02*
X214573D01*
X250133Y285750D02*
X214573D01*
X250133Y260350D02*
X214573D01*
X250133Y234950D02*
X214573D01*
X250133Y209550D02*
X214573D01*
X250133Y184150D02*
X214573D01*
X250133Y24130D02*
Y82550D01*
X163773Y285750D02*
Y311150D01*
Y260350D02*
Y285750D01*
Y311150D02*
Y336550D01*
Y361950*
Y384810*
X162503Y386080*
Y408940*
X163773Y209550D02*
Y234950D01*
Y260350*
Y184150D02*
Y209550D01*
X189173Y285750D02*
Y311150D01*
Y260350D02*
Y285750D01*
Y311150D02*
Y336550D01*
Y361950*
Y209550D02*
Y234950D01*
Y184150D02*
Y209550D01*
Y234950D02*
Y260350D01*
Y433070D02*
X162503Y459740D01*
X189173Y361950D02*
Y433070D01*
X163773Y168910D02*
Y184150D01*
X173933Y158750D02*
X163773Y168910D01*
X250133Y158750D02*
X173933D01*
X256483Y495300D02*
X220923Y459740D01*
X162503*
X281883Y431800D02*
Y495300D01*
Y431800D02*
X262833Y412750D01*
X250133*
X307283Y422910D02*
Y495300D01*
Y422910D02*
X271723Y387350D01*
X250133*
X300933Y24130D02*
Y69850D01*
X339033Y107950D02*
X300933Y69850D01*
X402533Y107950D02*
X339033D01*
X406851Y163068D02*
X402533Y158750D01*
X262833Y515620D02*
X256483Y509270D01*
Y495300D02*
Y509270D01*
X275533Y158750D02*
X250133D01*
X326333Y24130D02*
Y46482D01*
X339033Y59182D02*
X326333Y46482D01*
X275533Y24130D02*
Y95250D01*
X262833Y107950*
X250133*
X281121Y153162D02*
X250133Y158750D01*
X332683Y204724D02*
X281121Y153162D01*
X332683Y204724D02*
Y495300D01*
X339033Y107950D02*
X326333D01*
X281121Y153162*
X275533Y158750*
X434283Y163068D02*
X406851D01*
X434283D02*
Y458470D01*
X377133Y515620*
X262833*
X434283Y151130D02*
X426663Y158750D01*
X402533*
X434283Y67310D02*
Y151130D01*
Y67310D02*
X426155Y59182D01*
X339033*
G54D11*
X155793Y24999D03*
X425793D03*
X155793Y514999D03*
X425793D03*
G54D12*
X163773Y260350D03*
X189173D03*
X214573D03*
X163773Y285750D03*
X189173D03*
X214573D03*
X163773Y311150D03*
X189173D03*
X214573D03*
X163773Y336550D03*
X189173D03*
X214573D03*
X163773Y184150D03*
X189173D03*
X214573D03*
X163773Y209550D03*
X189173D03*
X214573D03*
X224733Y24130D03*
X250133D03*
X275533D03*
X300933D03*
X326333D03*
X351733D03*
X163773Y234950D03*
X189173D03*
X214573D03*
X332683Y495300D03*
X307283D03*
X281883D03*
X256483D03*
X163773Y361950D03*
X189173D03*
X214573D03*
G54D13*
X402533Y438150D03*
Y412750D03*
Y387350D03*
Y361950D03*
Y336550D03*
Y311150D03*
Y285750D03*
Y260350D03*
Y234950D03*
Y209550D03*
Y184150D03*
Y158750D03*
Y133350D03*
Y107950D03*
Y82550D03*
X250133D03*
Y107950D03*
Y133350D03*
Y158750D03*
Y184150D03*
Y209550D03*
G54D14*
X250133Y234950D03*
Y260350D03*
Y285750D03*
Y311150D03*
Y336550D03*
Y361950D03*
Y387350D03*
Y412750D03*
Y438150D03*
X162503Y459740D03*
Y408940D03*
G54D15*
X450793Y0D02*
Y539999D01*
Y0D02*
X130793D01*
Y539999*
X450793D02*
X130793D01*
M02*